<svg xmlns="http://www.w3.org/2000/svg" width="1600" height="860" viewBox="0 0 1600 860"><g transform="translate(280.0,120) scale(0.49523809523809526)"><g transform="translate(0.000000,930.000000) scale(0.100000,-0.100000)"
fill="#2A2A2E" stroke="none">
<path d="M6580 8799 c-481 -35 -1099 -190 -1715 -432 -121 -47 -615 -257 -700
-297 -292 -138 -522 -258 -753 -394 -29 -17 -65 -38 -80 -46 -72 -41 -131 -76
-167 -101 -22 -14 -93 -62 -158 -105 -65 -44 -131 -88 -147 -99 -15 -11 -71
-51 -125 -90 -53 -38 -107 -77 -118 -85 -425 -293 -918 -814 -1086 -1147 -120
-238 -146 -529 -67 -738 98 -256 303 -456 763 -744 22 -14 56 -35 75 -46 18
-10 53 -31 78 -46 25 -14 119 -68 210 -119 231 -129 232 -130 360 -203 140
-80 197 -112 320 -178 52 -28 102 -57 110 -64 8 -6 51 -31 95 -55 44 -24 99
-56 122 -72 23 -15 44 -28 46 -28 4 0 33 -17 160 -92 20 -13 81 -53 135 -91
53 -37 118 -78 144 -92 80 -42 76 -60 -25 -104 -40 -17 -93 -43 -120 -56 -26
-14 -53 -25 -60 -25 -6 0 -39 -13 -72 -29 -62 -30 -104 -49 -265 -121 -52 -23
-122 -55 -155 -70 -33 -16 -134 -64 -225 -108 -91 -43 -203 -96 -250 -118
-124 -57 -574 -285 -650 -329 -36 -21 -87 -50 -115 -65 -46 -25 -150 -84 -335
-190 -480 -276 -1022 -685 -1203 -910 -182 -226 -182 -441 1 -559 66 -42 220
-89 334 -102 157 -17 455 -22 603 -11 77 7 199 16 270 21 223 17 585 73 880
138 61 13 144 30 185 39 136 26 510 127 645 174 50 17 128 44 175 60 47 15
119 42 160 58 41 17 100 40 130 52 97 38 452 218 543 275 318 199 513 417 584
652 85 285 -2 574 -265 883 -73 85 -278 286 -322 315 -105 70 -110 91 -28 131
135 66 331 154 342 154 9 0 204 89 330 151 32 16 65 29 73 29 8 0 33 11 56 24
23 13 53 27 67 31 14 4 106 47 205 95 99 48 191 91 205 95 34 10 127 60 169
90 41 30 71 33 71 7 0 -10 -28 -59 -62 -108 -35 -49 -71 -105 -81 -124 -10
-19 -35 -64 -57 -100 -52 -86 -119 -226 -129 -270 -16 -74 34 -150 98 -150 48
0 169 88 337 244 70 65 173 154 228 199 56 44 131 109 168 144 115 109 143 79
53 -58 -65 -100 -89 -163 -89 -242 -1 -55 1 -60 38 -94 35 -32 43 -35 83 -30
54 6 138 56 254 151 47 39 128 105 179 146 52 41 140 115 197 163 120 102 172
139 184 131 12 -7 3 -23 -76 -129 -37 -49 -77 -111 -91 -137 -13 -25 -48 -88
-79 -139 -32 -54 -55 -105 -55 -122 0 -52 67 -95 108 -69 6 5 140 135 296 289
230 228 314 303 438 396 162 121 187 137 212 137 23 0 19 -29 -9 -75 -24 -40
-36 -63 -151 -285 -33 -63 -67 -126 -77 -140 -27 -38 -22 -94 9 -119 50 -39
79 -29 169 57 223 213 468 416 633 524 62 41 81 8 38 -65 -14 -23 -38 -76 -54
-117 -17 -41 -46 -111 -66 -155 -46 -103 -48 -155 -7 -196 46 -46 117 -35 256
38 55 29 382 247 458 306 79 60 97 46 53 -41 -60 -118 -74 -252 -33 -313 67
-99 215 -125 429 -74 129 30 298 76 408 110 41 13 129 40 195 60 66 20 154 47
195 60 41 13 91 27 110 30 19 4 78 20 130 37 285 89 435 129 594 159 93 17
125 27 143 45 58 58 -7 89 -133 64 -108 -21 -399 -91 -559 -135 -49 -14 -166
-46 -260 -71 -93 -26 -215 -60 -270 -75 -664 -191 -865 -213 -865 -97 0 60 99
254 227 442 57 85 67 130 36 158 -45 39 -77 32 -149 -31 -22 -20 -96 -76 -165
-126 -68 -49 -159 -117 -204 -151 -257 -195 -455 -300 -455 -241 0 22 87 226
147 347 35 68 63 135 63 148 0 35 -52 82 -89 82 -74 0 -354 -176 -569 -357
-106 -90 -124 -68 -46 55 120 187 135 309 42 341 -49 17 -111 -17 -437 -240
-52 -35 -142 -109 -201 -165 -102 -98 -146 -131 -157 -121 -11 12 12 52 90
154 193 252 216 301 169 356 -34 39 -63 24 -244 -129 -354 -299 -435 -365
-583 -478 -49 -38 -130 -103 -179 -143 -49 -41 -99 -79 -112 -85 -27 -13 -54
-5 -54 16 0 25 132 265 245 446 12 19 43 68 69 109 51 82 56 111 26 141 -24
24 -57 26 -90 3 -35 -24 -212 -176 -295 -253 -107 -100 -207 -186 -355 -305
-74 -60 -166 -137 -205 -170 -75 -66 -109 -88 -119 -78 -13 14 -4 41 36 103
22 36 59 99 81 140 63 120 262 430 319 498 43 51 37 111 -13 137 -51 27 -58
23 -213 -120 -101 -93 -226 -180 -321 -224 -39 -18 -101 -47 -140 -65 -90 -43
-157 -74 -275 -125 -52 -23 -117 -52 -145 -65 -27 -13 -79 -37 -115 -54 -36
-16 -99 -46 -141 -66 -41 -20 -79 -36 -83 -36 -3 0 -59 -25 -124 -56 -413
-197 -434 -206 -471 -193 -17 6 -36 19 -41 29 -9 18 -174 134 -293 208 -16 9
-44 28 -62 42 -19 14 -57 39 -85 55 -29 17 -74 45 -101 63 -27 17 -51 32 -54
32 -3 0 -27 15 -54 33 -50 33 -55 36 -211 125 -52 30 -119 69 -148 86 -107 63
-262 151 -407 230 -27 15 -61 36 -76 47 -14 10 -37 23 -50 29 -13 6 -51 29
-84 50 -33 22 -80 51 -105 65 -25 14 -70 41 -100 60 -30 19 -68 42 -85 51
-249 140 -535 373 -629 511 -108 159 -135 352 -76 538 57 180 179 387 334 570
80 93 300 328 355 379 25 23 61 56 80 75 36 33 212 179 286 236 21 17 52 41
69 55 34 28 98 76 132 100 12 8 46 32 75 52 127 87 206 142 230 162 15 12 39
29 55 38 16 10 49 31 74 48 25 16 65 41 90 55 25 14 74 44 110 66 99 63 129
80 305 175 188 101 788 395 836 409 13 4 53 20 89 36 36 15 108 45 160 64 52
20 146 57 209 82 230 90 444 158 686 217 83 20 173 43 200 51 140 39 565 87
770 86 362 -1 704 -92 843 -223 58 -55 90 -107 123 -203 41 -118 39 -237 -8
-390 -54 -177 -128 -316 -313 -588 -34 -52 -211 -281 -289 -376 -231 -281
-870 -935 -1104 -1128 -25 -21 -138 -117 -252 -213 -199 -167 -263 -219 -474
-382 -52 -40 -122 -94 -155 -120 -92 -72 -421 -305 -456 -323 -45 -23 -66 -60
-52 -90 15 -32 54 -33 101 -2 132 86 270 180 351 240 649 479 1017 792 1525
1302 322 322 503 528 771 875 136 176 414 617 414 657 0 5 11 37 25 72 77 188
73 412 -9 569 -171 324 -633 486 -1256 441z m-2312 -5503 c15 -8 36 -24 47
-36 11 -13 64 -61 118 -107 148 -128 295 -282 383 -400 49 -66 96 -171 124
-276 40 -148 39 -205 -4 -327 -70 -201 -192 -340 -433 -495 -133 -85 -157 -99
-348 -198 -62 -33 -180 -87 -189 -87 -5 0 -27 -9 -50 -20 -55 -26 -159 -68
-226 -91 -30 -11 -77 -28 -105 -38 -27 -11 -95 -33 -150 -50 -55 -17 -138 -42
-185 -57 -47 -15 -123 -37 -170 -49 -47 -12 -155 -40 -240 -62 -222 -59 -653
-141 -885 -169 -71 -8 -159 -19 -195 -25 -216 -31 -759 -36 -905 -9 -231 43
-297 113 -246 262 65 190 254 374 771 752 119 87 424 278 595 373 50 28 124
69 165 93 41 24 111 62 155 86 44 23 109 58 145 78 111 61 927 465 1155 571
146 68 350 166 377 181 15 8 53 24 85 35 31 10 68 27 82 36 71 46 88 50 129
29z"/>
<path d="M14380 7720 c-25 -10 -90 -36 -145 -56 -92 -33 -244 -98 -450 -191
-297 -135 -1032 -502 -1230 -616 -38 -22 -106 -60 -150 -85 -44 -25 -102 -59
-130 -77 -27 -17 -71 -45 -98 -61 -71 -44 -256 -165 -307 -202 -25 -18 -56
-40 -70 -50 -21 -14 -145 -107 -343 -256 -80 -60 -328 -313 -379 -386 -184
-263 -212 -543 -75 -765 63 -103 223 -245 276 -245 60 0 53 49 -16 100 -265
196 -306 530 -102 835 126 189 385 425 699 638 305 206 445 293 715 442 223
123 712 373 925 473 47 22 132 62 190 89 154 73 236 108 320 139 41 15 99 39
129 55 29 15 60 25 68 22 20 -8 10 -56 -21 -103 -13 -19 -85 -156 -161 -305
-76 -148 -142 -277 -146 -285 -5 -8 -44 -87 -88 -175 -43 -88 -109 -216 -145
-285 -94 -179 -525 -1050 -638 -1290 -27 -58 -66 -139 -85 -180 -41 -86 -321
-656 -523 -1065 -76 -154 -161 -327 -188 -385 -132 -279 -184 -380 -209 -400
-21 -17 -40 -20 -112 -20 -107 0 -503 -18 -676 -31 -71 -5 -191 -14 -265 -19
-74 -6 -205 -17 -290 -25 -85 -8 -195 -17 -245 -21 -49 -3 -133 -12 -185 -19
-52 -8 -153 -19 -225 -25 -117 -10 -266 -28 -620 -76 -263 -35 -753 -122
-1235 -219 -551 -110 -1271 -316 -1735 -497 -552 -215 -1131 -575 -1318 -821
-168 -218 -152 -404 41 -506 73 -39 101 37 32 83 -51 33 -80 80 -80 127 0 224
351 517 965 805 88 41 168 79 177 84 52 28 413 166 527 202 36 11 98 31 136
43 39 13 126 40 195 60 69 20 161 47 205 60 220 65 423 118 670 174 128 29
193 42 415 87 41 8 120 24 175 35 55 11 152 29 215 39 63 10 144 25 180 34 36
8 123 22 193 31 71 9 140 20 153 26 14 5 100 18 192 29 92 11 203 27 247 35
44 7 130 19 190 25 61 6 178 19 260 30 270 35 652 63 1140 84 204 9 415 20
470 26 133 12 149 -1 99 -76 -15 -21 -88 -158 -162 -304 -218 -429 -346 -679
-399 -780 -213 -403 -285 -542 -564 -1089 -74 -144 -80 -170 -49 -201 56 -56
87 -20 261 300 40 74 104 184 141 245 37 60 93 156 125 213 32 56 73 128 90
160 44 76 75 135 110 203 15 31 33 62 39 70 7 8 37 64 69 124 120 229 173 332
202 385 67 125 192 367 286 553 110 221 123 234 205 221 21 -3 113 -1 203 6
118 8 322 10 722 5 l559 -8 46 -33 c132 -93 437 -253 602 -316 724 -278 1584
-364 2415 -244 55 8 123 17 150 21 378 46 1067 243 1375 393 45 22 56 32 58
55 8 67 -34 72 -168 21 -248 -94 -626 -203 -825 -239 -49 -9 -130 -24 -180
-35 -129 -27 -322 -53 -580 -79 -501 -50 -1293 -1 -1700 104 -254 66 -332 90
-420 125 -44 18 -118 47 -165 65 -149 58 -184 73 -232 100 -55 31 -65 42 -49
58 27 27 854 -13 1227 -59 40 -5 54 -3 67 11 87 87 -151 131 -823 155 -162 5
-365 14 -451 20 -85 5 -164 7 -176 4 -45 -12 -130 14 -185 56 -29 23 -96 73
-148 112 -167 124 -407 378 -491 519 -104 176 -139 241 -139 262 0 50 501 563
1085 1111 261 245 384 354 625 556 63 52 159 133 214 180 341 289 979 750
1321 955 122 73 369 212 405 228 19 9 60 30 90 48 65 38 346 179 356 179 4 0
73 30 153 66 154 69 263 117 346 152 103 44 191 79 207 85 50 17 60 99 14 117
-33 12 -172 -28 -361 -105 -49 -21 -112 -46 -140 -57 -171 -66 -268 -112 -469
-222 -76 -42 -141 -76 -143 -76 -11 0 -291 -166 -463 -273 -164 -103 -237
-151 -535 -357 -188 -129 -599 -443 -760 -579 -49 -42 -137 -115 -195 -161
-327 -263 -602 -508 -945 -842 -290 -282 -775 -774 -804 -815 -28 -41 -78 -47
-85 -10 -19 91 -16 122 13 182 58 120 91 192 91 201 0 5 11 31 24 59 14 27 34
70 45 95 12 25 38 79 60 120 21 41 58 116 81 165 23 50 55 117 70 150 16 33
43 92 60 130 18 39 45 97 60 130 16 33 43 92 61 130 31 68 70 146 149 305 66
132 170 348 170 355 0 9 40 94 210 450 103 213 260 554 275 595 7 19 38 87 69
151 31 64 56 121 56 127 0 20 50 69 82 82 51 20 68 40 68 76 0 60 -45 76 -120
44z m-1606 -3673 c13 -36 -5 -69 -85 -162 -60 -70 -89 -90 -89 -61 0 16 102
219 123 244 16 20 41 10 51 -21z m85 -189 c6 -7 32 -53 57 -103 94 -182 356
-482 544 -622 118 -88 155 -83 -582 -86 -697 -3 -675 -4 -646 47 7 13 26 40
41 62 16 21 56 82 90 134 71 110 97 144 187 249 36 42 100 119 143 172 127
160 144 174 166 147z"/>
<path d="M16769 6028 c-8 -7 -31 -33 -50 -58 -19 -24 -101 -123 -182 -220 -82
-96 -186 -225 -232 -285 -45 -61 -98 -129 -116 -152 -19 -22 -56 -69 -83 -103
-73 -92 -55 -87 -371 -100 -420 -17 -739 -43 -770 -64 -29 -19 -33 -56 -8 -81
18 -18 95 -18 693 5 123 5 228 6 232 4 22 -14 -2 -46 -119 -162 -253 -250
-401 -372 -595 -489 -104 -63 -334 -173 -361 -173 -23 0 -34 28 -18 49 6 9 30
53 52 99 62 126 55 234 -17 291 -94 74 -309 -85 -556 -410 -119 -155 -219
-364 -221 -460 -2 -109 117 -173 222 -119 95 48 294 235 371 348 36 53 58 67
125 78 130 22 299 103 530 257 39 26 88 60 110 77 22 16 51 37 65 47 14 10 63
51 110 91 164 143 163 126 -3 -125 -179 -270 -357 -629 -463 -936 l-34 -98 19
-44 c45 -103 94 -99 265 22 71 50 318 264 431 372 61 58 175 164 255 236 80
71 206 188 280 260 74 72 176 169 225 216 l90 86 154 -1 c106 -1 156 -5 158
-12 5 -14 -59 -63 -325 -251 -317 -223 -509 -374 -522 -407 -10 -27 7 -74 32
-87 59 -32 704 50 1028 131 41 10 95 21 120 25 44 7 139 34 272 76 77 25 86
22 119 -44 66 -129 183 -190 424 -221 241 -30 756 22 1010 103 33 11 76 23 95
26 43 8 221 61 275 82 22 8 69 26 105 38 36 13 103 40 150 60 47 20 107 46
134 57 99 39 365 175 473 241 29 18 76 46 105 63 106 62 144 119 98 144 -28
15 -52 6 -145 -55 -44 -29 -98 -62 -120 -74 -22 -13 -67 -38 -100 -56 -114
-65 -369 -185 -391 -185 -5 0 -25 -8 -44 -19 -19 -10 -53 -24 -75 -30 -22 -7
-69 -23 -105 -36 -69 -25 -211 -69 -350 -110 -115 -33 -417 -92 -515 -99 -44
-4 -143 -14 -220 -23 -209 -23 -459 -2 -577 49 -53 23 -118 87 -118 117 0 26
21 40 138 91 397 175 499 239 584 365 46 69 47 94 8 138 -62 72 -193 70 -356
-4 -165 -75 -396 -276 -452 -394 -36 -74 -56 -90 -132 -103 -30 -6 -68 -16
-85 -22 -44 -17 -274 -69 -400 -90 -60 -10 -142 -25 -181 -34 -40 -8 -128 -20
-195 -26 -68 -5 -150 -14 -182 -19 -143 -24 -119 7 157 200 276 194 539 387
602 443 51 45 54 63 17 98 -60 56 -88 59 -191 23 -39 -14 -84 -25 -98 -25 -15
0 -80 -9 -146 -20 -114 -20 -121 -20 -173 -4 -66 21 -92 13 -132 -43 -15 -21
-72 -78 -127 -128 -55 -49 -188 -174 -295 -276 -537 -510 -844 -779 -890 -779
-28 0 -27 26 4 96 14 31 30 75 36 97 17 67 76 191 147 311 36 61 93 161 127
221 73 131 87 154 217 355 243 375 328 493 371 517 12 7 54 12 92 13 39 0 108
4 155 10 79 9 189 14 835 40 266 10 494 27 535 38 37 11 41 58 5 72 -39 15
-528 12 -966 -6 -553 -22 -543 -22 -546 -4 -4 15 35 70 178 255 38 50 125 167
194 260 69 94 144 194 167 224 67 84 74 100 57 130 -17 30 -74 40 -100 19z
m1601 -1553 c0 -40 -361 -257 -386 -232 -10 10 26 61 59 85 187 132 327 195
327 147z m-3614 -47 c9 -29 0 -54 -50 -143 -75 -135 -98 -155 -138 -118 -40
36 -8 129 76 223 63 71 97 83 112 38z m-309 -314 c10 -14 33 -39 51 -56 17
-17 32 -39 32 -48 0 -31 -238 -259 -287 -274 -15 -5 -24 -2 -31 11 -13 22 2
59 86 217 101 188 113 201 149 150z"/>
<path d="M10105 5176 c-63 -29 -136 -121 -175 -224 -25 -65 -25 -94 -2 -115
39 -36 72 -20 124 57 23 33 63 84 89 111 73 78 85 114 52 153 -25 28 -53 33
-88 18z"/>
</g></g><text x="800.0" y="644.5714285714286" font-family="Sans300" font-size="26" fill="#2A2A2E" text-anchor="middle" letter-spacing="7.5">THE WOMAN RETURNING TO HERSELF</text></svg>